<?xml version="1.0" encoding="UTF-8"?>
<svg xmlns="http://www.w3.org/2000/svg" width="800" height="1200" viewBox="0 0 800 1200" role="img" aria-labelledby="title-lemon">
  <title id="title-lemon">Dikshu LEMON juice bottle by DOS</title>
  <defs>
    <clipPath id="bottle-clip-lemon">
      <path d="M314 148 C314 118 338 96 400 96 C462 96 486 118 486 148 L486 194 C486 220 504 254 520 300 C542 364 555 434 560 520 L586 998 C591 1092 528 1140 400 1140 C272 1140 209 1092 214 998 L240 520 C245 434 258 364 280 300 C296 254 314 220 314 194 Z" />
    </clipPath>
    <linearGradient id="juice-lemon" x1="238" y1="170" x2="568" y2="1118" gradientUnits="userSpaceOnUse">
      <stop offset="0" stop-color="#f9dd72" />
      <stop offset="0.42" stop-color="#f6cd2f" />
      <stop offset="1" stop-color="#c5a426" />
    </linearGradient>
    <linearGradient id="glass-lemon" x1="240" y1="80" x2="560" y2="1115" gradientUnits="userSpaceOnUse">
      <stop offset="0" stop-color="#ffffff" stop-opacity="0.78" />
      <stop offset="0.38" stop-color="#ffffff" stop-opacity="0.12" />
      <stop offset="0.72" stop-color="#ffffff" stop-opacity="0.22" />
      <stop offset="1" stop-color="#ffffff" stop-opacity="0.5" />
    </linearGradient>
    <linearGradient id="cap-lemon" x1="292" y1="66" x2="508" y2="158" gradientUnits="userSpaceOnUse">
      <stop offset="0" stop-color="#050505" />
      <stop offset="0.52" stop-color="#343434" />
      <stop offset="1" stop-color="#050505" />
    </linearGradient>
    <filter id="soft-shadow-lemon" x="-40%" y="-20%" width="180%" height="150%">
      <feDropShadow dx="0" dy="30" stdDeviation="22" flood-color="#000000" flood-opacity="0.34" />
    </filter>
    <style>
      .brand { font: 800 34px Arial, sans-serif; letter-spacing: 4px; fill: #19150f; }
      .made { font: 700 16px Arial, sans-serif; letter-spacing: 3px; fill: #6d604e; }
      .flavour { font: 900 50px Arial, sans-serif; letter-spacing: 1px; fill: #17130f; }
      .juice { font: 800 24px Arial, sans-serif; letter-spacing: 6px; fill: #17130f; }
      .claim { font: 800 20px Arial, sans-serif; letter-spacing: 1px; fill: #201b14; }
      .micro { font: 700 13px Arial, sans-serif; letter-spacing: 1px; fill: #4c4438; }
    </style>
  </defs>

  <ellipse cx="400" cy="1136" rx="192" ry="28" fill="#000" opacity="0.24" />
  <g filter="url(#soft-shadow-lemon)">
    <path d="M314 148 C314 118 338 96 400 96 C462 96 486 118 486 148 L486 194 C486 220 504 254 520 300 C542 364 555 434 560 520 L586 998 C591 1092 528 1140 400 1140 C272 1140 209 1092 214 998 L240 520 C245 434 258 364 280 300 C296 254 314 220 314 194 Z" fill="url(#juice-lemon)" clip-path="url(#bottle-clip-lemon)" />
    <path d="M314 148 C314 118 338 96 400 96 C462 96 486 118 486 148 L486 194 C486 220 504 254 520 300 C542 364 555 434 560 520 L586 998 C591 1092 528 1140 400 1140 C272 1140 209 1092 214 998 L240 520 C245 434 258 364 280 300 C296 254 314 220 314 194 Z" fill="url(#glass-lemon)" opacity="0.38" />
    <path d="M314 148 C314 118 338 96 400 96 C462 96 486 118 486 148 L486 194 C486 220 504 254 520 300 C542 364 555 434 560 520 L586 998 C591 1092 528 1140 400 1140 C272 1140 209 1092 214 998 L240 520 C245 434 258 364 280 300 C296 254 314 220 314 194 Z" fill="none" stroke="#fff8dd" stroke-width="4" opacity="0.72" />
    <path d="M494 196 C496 238 520 270 533 326 C548 390 556 463 560 520 L586 998 C591 1092 528 1140 400 1140" fill="none" stroke="#fff6d7" stroke-width="11" opacity="0.32" />
    <path d="M328 178 C324 234 305 265 292 318 C279 374 269 443 265 520 L241 995 C237 1062 273 1110 352 1128" fill="none" stroke="#5f3a17" stroke-width="5" opacity="0.2" />
    <rect x="284" y="68" width="232" height="90" rx="38" fill="url(#cap-lemon)" />
    <rect x="306" y="150" width="188" height="36" rx="16" fill="#f8ecd1" opacity="0.38" />
    <rect x="304" y="170" width="192" height="18" rx="9" fill="#140f0c" opacity="0.18" />

    <g transform="translate(193 514)">
      <rect x="0" y="0" width="414" height="485" rx="24" fill="#f8f1de" stroke="#17130f" stroke-width="4" />
      <rect x="14" y="14" width="386" height="457" rx="18" fill="#fff8e8" stroke="#3d3427" stroke-width="2" />
      <text x="207" y="52" text-anchor="middle" class="brand">DIKSHU</text>
      <text x="207" y="78" text-anchor="middle" class="made">BY DOS</text>
      <text x="207" y="138" text-anchor="middle" class="flavour">LEMON</text>
      <line x1="60" y1="160" x2="158" y2="160" stroke="#17130f" stroke-width="3" />
      <line x1="256" y1="160" x2="354" y2="160" stroke="#17130f" stroke-width="3" />
      <text x="207" y="169" text-anchor="middle" class="juice">JUICE</text>
      
      <g transform="translate(132 190)">
        <ellipse cx="98" cy="95" rx="88" ry="58" fill="#f5d431" stroke="#c99908" stroke-width="4" transform="rotate(-12 98 95)" />
        <ellipse cx="166" cy="118" rx="58" ry="42" fill="#fff06d" stroke="#d0a20c" stroke-width="4" transform="rotate(18 166 118)" />
        <ellipse cx="166" cy="118" rx="42" ry="30" fill="#fff7a8" />
        <line x1="166" y1="118" x2="194.0" y2="118.0" stroke="#ffad21" stroke-width="2" opacity="0.72" /><line x1="166" y1="118" x2="187.4" y2="136.0" stroke="#ffad21" stroke-width="2" opacity="0.72" /><line x1="166" y1="118" x2="170.9" y2="145.6" stroke="#ffad21" stroke-width="2" opacity="0.72" /><line x1="166" y1="118" x2="152.0" y2="142.2" stroke="#ffad21" stroke-width="2" opacity="0.72" /><line x1="166" y1="118" x2="139.7" y2="127.6" stroke="#ffad21" stroke-width="2" opacity="0.72" /><line x1="166" y1="118" x2="139.7" y2="108.4" stroke="#ffad21" stroke-width="2" opacity="0.72" /><line x1="166" y1="118" x2="152.0" y2="93.8" stroke="#ffad21" stroke-width="2" opacity="0.72" /><line x1="166" y1="118" x2="170.9" y2="90.4" stroke="#ffad21" stroke-width="2" opacity="0.72" /><line x1="166" y1="118" x2="187.4" y2="100.0" stroke="#ffad21" stroke-width="2" opacity="0.72" />
        <ellipse cx="117" cy="47" rx="13" ry="32" fill="#579341" transform="rotate(42 117 47)" />
      </g>
      <text x="207" y="344" text-anchor="middle" class="claim">100% NATURAL</text>
      <text x="207" y="370" text-anchor="middle" class="claim">NO ADDED SUGAR</text>
      <line x1="28" y1="394" x2="386" y2="394" stroke="#17130f" stroke-width="2" />
      <line x1="136" y1="394" x2="136" y2="458" stroke="#17130f" stroke-width="2" />
      <line x1="272" y1="394" x2="272" y2="458" stroke="#17130f" stroke-width="2" />
      <text x="82" y="419" text-anchor="middle" class="micro">FRESH</text>
      <text x="82" y="439" text-anchor="middle" class="micro">PRESSED</text>
      <text x="204" y="426" text-anchor="middle" class="claim">250 ML</text>
      <text x="204" y="448" text-anchor="middle" class="micro">BATCH DOS</text>
      <text x="330" y="419" text-anchor="middle" class="micro">COLD</text>
      <text x="330" y="439" text-anchor="middle" class="micro">FILLED</text>
    </g>
  </g>
</svg>
